<?xml version="1.0" encoding="UTF-8" standalone="no"?>
<!-- Created with Inkscape (http://www.inkscape.org/) -->

<svg
   width="220"
   height="220"
   viewBox="0 0 58.20833 58.208333"
   version="1.1"
   id="svg1"
   inkscape:version="1.4.4 (dcaf3e7d9e, 2026-05-05)"
   sodipodi:docname="icon.svg"
   xmlns:inkscape="http://www.inkscape.org/namespaces/inkscape"
   xmlns:sodipodi="http://sodipodi.sourceforge.net/DTD/sodipodi-0.dtd"
   xmlns="http://www.w3.org/2000/svg"
   xmlns:svg="http://www.w3.org/2000/svg">
  <sodipodi:namedview
     id="namedview1"
     pagecolor="#ffffff"
     bordercolor="#000000"
     borderopacity="0.25"
     inkscape:showpageshadow="2"
     inkscape:pageopacity="0.0"
     inkscape:pagecheckerboard="0"
     inkscape:deskcolor="#d1d1d1"
     inkscape:document-units="mm"
     inkscape:zoom="1.8368706"
     inkscape:cx="495.67999"
     inkscape:cy="53.351608"
     inkscape:window-width="3054"
     inkscape:window-height="1678"
     inkscape:window-x="0"
     inkscape:window-y="0"
     inkscape:window-maximized="1"
     inkscape:current-layer="layer1" />
  <defs
     id="defs1" />
  <g
     inkscape:label="Layer 1"
     inkscape:groupmode="layer"
     id="layer1">
    <g
       id="g5"
       transform="matrix(0.223042,0,0,0.223042,50.224113,-112.83627)">
      <path
         style="fill:#ece7d9;fill-opacity:1;stroke:none;stroke-width:0.691104;stroke-linecap:round;stroke-linejoin:round"
         d="m -208.3079,641.81236 58.72295,-11.78962 56.690873,-69.60651 57.16767,66.58511 54.23564,14.65689 6.10414,2.71615 c 0,0 -14.6305503,29.47904 -17.2540203,31.74509 -2.62347,2.26608 -36.2647497,28.68281 -36.2647497,28.68281 0,0 -34.62978,3.0214 -39.35202,5.28745 -4.72225,2.26604 -34.629793,7.55345 -38.827343,8.30882 -4.19755,0.75536 -16.7902,-8.30882 -32.53101,-10.57487 -15.74081,-2.26604 -20.22388,-6.61262 -27.56959,-8.12335 -7.34571,-1.51068 -22.13262,-15.41139 -27.90425,-20.69884 -5.77163,-5.28746 -12.61356,-21.14977 -12.61356,-21.14977 z"
         id="path2-2"
         sodipodi:nodetypes="ccccccscssssscc" />
      <path
         d="m 29.026553,638.89838 a 15.82032,15.82032 0 0 0 -9.84375,-7.47558 80.056,80.056 0 0 0 -27.9570003,-1.85254 85.73919,85.73919 0 0 0 -2.5312497,-40.8252 15.96177,15.96177 0 0 0 -18.54394,-10.706 82.56127,82.56127 0 0 0 -26.1582,10.74511 94.07116,94.07116 0 0 0 -27.84034,-34.36816 15.94439,15.94439 0 0 0 -19.203613,10e-4 94.06121,94.06121 0 0 0 -27.83891,34.36711 82.56738,82.56738 0 0 0 -26.15625,-10.74511 15.96626,15.96626 0 0 0 -18.54589,10.707 85.73054,85.73054 0 0 0 -2.53125,40.82331 80.01629,80.01629 0 0 0 -27.957,1.85352 15.957,15.957 0 0 0 -11.3955,19.73828 c 3.53808,12.65332 14.36767,36.70508 47.13769,55.626 32.56637,18.8012 61.34615,18.8222 76.835903,18.8222 0.0156,0 0.0303,0.002 0.0459,0.002 l 0.008,-4.9e-4 0.008,4.9e-4 c 0.0156,0 0.0303,-0.002 0.0459,-0.002 15.48975,0 44.26953,-0.021 76.83594,-18.82324 32.77,-18.91992 43.59961,-42.97168 47.13769,-55.625 a 15.81809,15.81809 0 0 0 -1.55175,-12.2627 z m -122.44532,-71.66113 c 9.61231,7.17676 31.96973,28.40039 31.96973,70.37207 0,41.97168 -22.35742,63.19531 -31.96826,70.37109 a 0.0448,0.0448 0 0 1 -0.0635,0 c -9.613263,-7.17871 -31.968263,-28.40234 -31.968263,-70.37109 0,-41.97168 22.35742,-63.19531 32.030273,-70.37207 z m -108.688473,79.68359 a 66.43813,66.43813 0 0 1 28.34814,-0.57763 123.02667,123.02667 0 0 0 9.669,20.91259 138.33271,138.33271 0 0 0 33.27295,38.52344 121.79948,121.79948 0 0 1 -31.52149,-12.84863 c -27.85308,-16.08203 -36.84673,-35.77246 -39.7686,-46.00977 z m 177.547853,46.00879 a 121.79928,121.79928 0 0 1 -31.521,12.84912 138.33687,138.33687 0 0 0 33.27246,-38.523 123.02667,123.02667 0 0 0 9.66895,-20.91259 67.45364,67.45364 0 0 1 28.30908,0.50927 c -2.88281,10.30572 -11.8764603,29.99615 -39.72949,46.0772 z"
         id="path1-2"
         style="fill:#ce5f37;fill-opacity:1" />
    </g>
  </g>
</svg>
